<svg width="175" height="52" viewBox="0 0 175 52" fill="none" xmlns="http://www.w3.org/2000/svg">
<g clip-path="url(#clip0_422_175)">
<path d="M10.5689 22.7771L17.3772 15.9481L24.189 22.7807L28.1505 18.807L17.3772 8L6.60742 18.8033L10.5689 22.7771Z" fill="#F3BA2F"/>
<path d="M7.77198 25.5821L3.81055 21.6084L-0.151083 25.5823L3.81035 29.556L7.77198 25.5821Z" fill="#F3BA2F"/>
<path d="M10.5694 28.3891L17.3776 35.2181L24.1892 28.3857L28.1529 32.3573L28.1509 32.3595L17.3776 43.1662L6.60759 32.3631L6.60205 32.3576L10.5694 28.3891Z" fill="#F3BA2F"/>
<path d="M30.9451 29.5579L34.9067 25.584L30.9453 21.6103L26.9837 25.5842L30.9451 29.5579Z" fill="#F3BA2F"/>
<path d="M21.3956 25.5812H21.3973L17.3773 21.5488L14.4066 24.5288H14.4063L14.0651 24.8713L13.361 25.5776L13.3555 25.5831L13.361 25.589L17.3773 29.6177L21.3973 25.5854L21.3992 25.5831L21.3956 25.5812Z" fill="#F3BA2F"/>
<path d="M41.0825 16.5215H49.6986C51.837 16.5215 53.4541 17.072 54.55 18.173C55.3981 19.0257 55.8221 20.0825 55.8221 21.3432V21.3965C55.8221 21.9293 55.7564 22.4001 55.6244 22.8083C55.4926 23.2172 55.3165 23.5852 55.0963 23.9138C54.8768 24.2426 54.6215 24.5312 54.3313 24.7795C54.0408 25.0284 53.7288 25.2417 53.3946 25.4189C54.4695 25.8278 55.3156 26.3824 55.9326 27.084C56.5492 27.7859 56.8579 28.7583 56.8579 30.0012V30.0543C56.8579 30.907 56.6946 31.6527 56.3675 32.2924C56.0405 32.9315 55.572 33.4645 54.962 33.8908C54.352 34.3172 53.6186 34.6366 52.7613 34.8499C51.904 35.0629 50.954 35.1693 49.9115 35.1693H41.0825V16.5215ZM48.8372 24.0604C49.7404 24.0604 50.4576 23.9055 50.9884 23.5944C51.5194 23.2836 51.785 22.7817 51.785 22.0892V22.0359C51.785 21.4146 51.5546 20.9396 51.0944 20.6108C50.6339 20.2822 49.9699 20.1178 49.1027 20.1178H45.0659V24.0604H48.8372ZM49.9262 31.5733C50.8291 31.5733 51.5369 31.4094 52.0508 31.0806C52.5641 30.752 52.8211 30.2412 52.8211 29.5485V29.4954C52.8211 28.8738 52.5819 28.3811 52.104 28.0167C51.6258 27.6531 50.8557 27.4709 49.7933 27.4709H45.0659V31.5736H49.9262V31.5733Z" fill="#F3BA2F"/>
<path d="M61.9893 16.5215H66.0795V35.1699H61.9893V16.5215Z" fill="#F3BA2F"/>
<path d="M72.2744 16.5215H76.0451L84.7565 28.0036V16.5215H88.7933V35.1699H85.3144L76.311 23.315V35.1699H72.2744V16.5215Z" fill="#F3BA2F"/>
<path d="M101.176 16.3877H104.947L112.915 35.1691H108.639L106.939 30.9868H99.0779L97.3783 35.1691H93.208L101.176 16.3877ZM105.479 27.3632L103.008 21.3161L100.539 27.3632H105.479Z" fill="#F3BA2F"/>
<path d="M117.33 16.5215H121.102L129.812 28.0036V16.5215H133.849V35.1699H130.37L121.367 23.315V35.1699H117.33V16.5215Z" fill="#F3BA2F"/>
<path d="M148.569 35.4887C147.205 35.4887 145.939 35.2398 144.771 34.7429C143.602 34.246 142.593 33.5663 141.743 32.7048C140.893 31.8435 140.229 30.8266 139.751 29.6545C139.273 28.4821 139.034 27.23 139.034 25.898V25.8449C139.034 24.5128 139.273 23.2655 139.751 22.102C140.229 20.9387 140.893 19.9175 141.743 19.0384C142.593 18.1593 143.611 17.4663 144.797 16.9603C145.983 16.4542 147.294 16.2012 148.728 16.2012C149.595 16.2012 150.387 16.2726 151.104 16.4142C151.821 16.5567 152.472 16.7517 153.057 17.0003C153.641 17.2491 154.18 17.551 154.677 17.906C155.172 18.2615 155.632 18.652 156.058 19.0784L153.455 22.0886C152.728 21.4317 151.99 20.9162 151.237 20.5435C150.485 20.1708 149.639 19.9841 148.701 19.9841C147.922 19.9841 147.2 20.1352 146.537 20.4371C145.873 20.739 145.302 21.1562 144.823 21.6889C144.346 22.2217 143.974 22.8391 143.708 23.5404C143.443 24.2423 143.31 24.9925 143.31 25.7916V25.8446C143.31 26.6437 143.443 27.3989 143.708 28.1088C143.974 28.8196 144.341 29.4409 144.81 29.9737C145.279 30.5064 145.846 30.9286 146.51 31.2394C147.174 31.5504 147.904 31.7054 148.701 31.7054C149.764 31.7054 150.661 31.5102 151.396 31.1194C152.131 30.7291 152.862 30.1961 153.588 29.5209L156.19 32.1584C155.712 32.6737 155.216 33.1356 154.703 33.5436C154.19 33.9524 153.628 34.3029 153.016 34.5962C152.406 34.889 151.737 35.1115 151.012 35.262C150.285 35.4128 149.471 35.4887 148.569 35.4887Z" fill="#F3BA2F"/>
<path d="M161.004 16.5215H175V20.1714H165.041V23.9543H173.805V27.604H165.041V31.5202H175.133V35.1699H161.004V16.5215Z" fill="#F3BA2F"/>
</g>
<defs>
<clipPath id="clip0_422_175">
<rect width="175" height="52" fill="white"/>
</clipPath>
</defs>
</svg>
