<svg width="16" height="16" viewBox="0 0 16 16" fill="none" xmlns="http://www.w3.org/2000/svg">
<path d="M11.7084 0.669556L9.85689 0.666504C7.77678 0.666504 6.43253 2.08323 6.43253 4.27599V5.94021H4.57092C4.41005 5.94021 4.27979 6.07417 4.27979 6.23942V8.65068C4.27979 8.81592 4.4102 8.94974 4.57092 8.94974H6.43253V15.0341C6.43253 15.1994 6.56279 15.3332 6.72366 15.3332H9.15253C9.31339 15.3332 9.44366 15.1992 9.44366 15.0341V8.94974H11.6203C11.7812 8.94974 11.9114 8.81592 11.9114 8.65068L11.9123 6.23942C11.9123 6.16008 11.8816 6.08409 11.8271 6.02794C11.7726 5.97179 11.6983 5.94021 11.6211 5.94021H9.44366V4.52943C9.44366 3.85135 9.60096 3.50713 10.4608 3.50713L11.7081 3.50667C11.8688 3.50667 11.9991 3.3727 11.9991 3.20761V0.968617C11.9991 0.803675 11.869 0.669861 11.7084 0.669556Z" fill="white"/>
</svg>
