<svg width="175" height="52" viewBox="0 0 175 52" fill="none" xmlns="http://www.w3.org/2000/svg">
<g clip-path="url(#clip0_422_138)">
<path fill-rule="evenodd" clip-rule="evenodd" d="M108.567 40.6655C98.3971 48.0566 83.6569 51.9999 70.966 51.9999C53.1711 51.9999 37.1512 45.5103 25.0316 34.7167C24.0794 33.8679 24.9325 32.7112 26.0752 33.3722C39.1547 40.8759 55.3269 45.3901 72.0324 45.3901C83.2989 45.3901 95.6928 43.0917 107.089 38.3221C108.81 37.601 110.25 39.4337 108.567 40.6655Z" fill="#FF9900"/>
<path fill-rule="evenodd" clip-rule="evenodd" d="M112.794 35.896C111.499 34.2586 104.202 35.1224 100.926 35.5055C99.9282 35.6256 99.7758 34.7694 100.675 34.1534C106.487 30.1199 116.024 31.2842 117.136 32.6362C118.249 33.9957 116.847 43.4223 111.385 47.9215C110.547 48.6125 109.747 48.2444 110.121 47.3281C111.347 44.3086 114.097 37.541 112.794 35.896Z" fill="#FF9900"/>
<path fill-rule="evenodd" clip-rule="evenodd" d="M101.155 5.67855V1.75771C101.155 1.16433 101.612 0.766235 102.16 0.766235H119.963C120.534 0.766235 120.991 1.17184 120.991 1.75771V5.11521C120.983 5.67855 120.504 6.41465 119.65 7.57888L110.425 20.5657C113.853 20.4831 117.472 20.9864 120.58 22.7139C121.281 23.1045 121.471 23.6754 121.524 24.2387V28.4224C121.524 28.9933 120.884 29.6618 120.214 29.3163C114.737 26.4845 107.462 26.1766 101.406 29.3463C100.789 29.6768 100.142 29.0158 100.142 28.445V24.4716C100.142 23.8331 100.149 22.744 100.797 21.775L111.484 6.66252H102.183C101.612 6.66252 101.155 6.26443 101.155 5.67855Z" fill="#8A40FF"/>
<path fill-rule="evenodd" clip-rule="evenodd" d="M36.2141 30.1424H30.798C30.28 30.1049 29.8687 29.7218 29.8306 29.2336V1.82527C29.8306 1.27695 30.2952 0.841302 30.8742 0.841302H35.9247C36.4503 0.863821 36.8693 1.26193 36.9074 1.75767V5.34051H37.0064C38.3242 1.87784 40.8 0.262939 44.1365 0.262939C47.5263 0.262939 49.644 1.87784 51.1676 5.34051C52.4778 1.87784 55.4563 0.262939 58.6481 0.262939C60.9182 0.262939 63.4015 1.18682 64.9174 3.2599C66.6314 5.56584 66.281 8.91582 66.281 11.8527L66.2734 29.151C66.2734 29.6993 65.8087 30.1424 65.2298 30.1424H59.8212C59.2804 30.1049 58.8462 29.6767 58.8462 29.151V14.6243C58.8462 13.4676 58.9528 10.5833 58.6938 9.48667C58.2901 7.64644 57.0789 7.12816 55.5096 7.12816C54.1994 7.12816 52.8282 7.99195 52.2721 9.37401C51.716 10.7561 51.7694 13.0695 51.7694 14.6243V29.151C51.7694 29.6993 51.3047 30.1424 50.7258 30.1424H45.3172C44.7688 30.1049 44.3422 29.6767 44.3422 29.151L44.3346 14.6243C44.3346 11.5673 44.8449 7.06807 40.998 7.06807C37.1054 7.06807 37.2578 11.4546 37.2578 14.6243V29.151C37.2578 29.6993 36.7931 30.1424 36.2142 30.1424" fill="#8A40FF"/>
<path fill-rule="evenodd" clip-rule="evenodd" d="M136.318 0.262939C144.354 0.262939 148.704 7.06807 148.704 15.721C148.704 24.0809 143.897 30.7133 136.318 30.7133C128.426 30.7133 124.129 23.9081 124.129 15.428C124.129 6.89531 128.479 0.262939 136.318 0.262939ZM136.363 5.85878C132.372 5.85878 132.12 11.2218 132.12 14.5642C132.12 17.9142 132.067 25.0649 136.318 25.0649C140.515 25.0649 140.713 19.2963 140.713 15.781C140.713 13.4676 140.614 10.7035 139.906 8.51022C139.296 6.60238 138.085 5.85878 136.363 5.85878Z" fill="#8A40FF"/>
<path fill-rule="evenodd" clip-rule="evenodd" d="M159.125 30.1424H153.732C153.191 30.1049 152.757 29.6767 152.757 29.151L152.749 1.73513C152.795 1.23188 153.244 0.841302 153.793 0.841302H158.813C159.285 0.863821 159.673 1.17931 159.78 1.60744V5.79868H159.879C161.395 2.0506 163.52 0.262939 167.261 0.262939C169.691 0.262939 172.06 1.12673 173.583 3.49275C175 5.68602 175 9.37401 175 12.0255V29.2787C174.939 29.7594 174.49 30.1424 173.957 30.1424H168.525C168.03 30.1049 167.619 29.7443 167.565 29.2787V14.3915C167.565 11.3945 167.916 7.00798 164.175 7.00798C162.858 7.00798 161.646 7.87928 161.045 9.20125C160.283 10.8762 160.184 12.5437 160.184 14.3915V29.151C160.176 29.6993 159.704 30.1424 159.125 30.1424" fill="#8A40FF"/>
<path fill-rule="evenodd" clip-rule="evenodd" d="M86.9629 17.0504C86.9629 19.131 87.0162 20.8661 85.9497 22.7138C85.0889 24.2161 83.7177 25.14 82.2018 25.14C80.1222 25.14 78.9034 23.5776 78.9034 21.2717C78.9034 16.7199 83.0398 15.8937 86.9629 15.8937V17.0504ZM92.4247 30.0673C92.0667 30.3828 91.5487 30.4053 91.1449 30.195C89.3472 28.7228 89.0196 28.0393 88.0369 26.6347C85.0661 29.6241 82.956 30.518 79.1091 30.518C74.5461 30.518 71.0039 27.7463 71.0039 22.1956C71.0039 17.8616 73.3806 14.9097 76.7781 13.4676C79.7185 12.1907 83.8244 11.9653 86.9629 11.6123V10.9213C86.9629 9.65188 87.0619 8.14964 86.3001 7.05301C85.645 6.06904 84.3805 5.66344 83.2607 5.66344C81.1963 5.66344 79.3605 6.70749 78.911 8.87072C78.8196 9.35143 78.4616 9.82464 77.9664 9.84717L72.7179 9.29134C72.276 9.1937 71.7809 8.84067 71.9104 8.17218C73.114 1.89282 78.8729 0 84.0224 0C86.6582 0 90.1013 0.691031 92.1809 2.65896C94.8166 5.08507 94.5653 8.3224 94.5653 11.8451V20.1675C94.5653 22.6688 95.6165 23.7654 96.6068 25.1174C96.9496 25.5981 97.0258 26.1765 96.5839 26.537C95.4794 27.4459 93.514 29.1359 92.4323 30.0823L92.4247 30.0673" fill="#8A40FF"/>
<path fill-rule="evenodd" clip-rule="evenodd" d="M15.959 17.0506C15.959 19.1312 16.0123 20.8663 14.9458 22.7141C14.085 24.2163 12.7215 25.1402 11.1979 25.1402C9.11831 25.1402 7.90711 23.5779 7.90711 21.2719C7.90711 16.7202 12.0435 15.8939 15.959 15.8939V17.0506ZM21.4208 30.0675C21.0628 30.383 20.5448 30.4055 20.141 30.1952C18.3433 28.723 18.0233 28.0395 17.033 26.6349C14.0622 29.6244 11.9597 30.5182 8.10516 30.5182C3.54981 30.5182 0 27.7466 0 22.1958C0 17.8619 2.38432 14.91 5.77417 13.4678C8.71457 12.1909 12.8205 11.9656 15.959 11.6125V10.9215C15.959 9.65212 16.058 8.14988 15.3038 7.05326C14.6411 6.06929 13.3766 5.66368 12.2644 5.66368C10.2 5.66368 8.35655 6.70774 7.90711 8.87096C7.81569 9.35168 7.45766 9.82488 6.97014 9.84742L1.71397 9.29158C1.27214 9.19394 0.784615 8.84091 0.906498 8.17242C2.1177 1.89307 7.86902 0.000244141 13.0185 0.000244141C15.6542 0.000244141 19.0974 0.691275 21.177 2.65921C23.8127 5.08532 23.5613 8.32264 23.5613 11.8454V20.1678C23.5613 22.669 24.6126 23.7656 25.6029 25.1177C25.9533 25.5984 26.0295 26.1767 25.5876 26.5373C24.4831 27.4461 22.5177 29.1362 21.436 30.0826L21.4208 30.0675" fill="#8A40FF"/>
</g>
<defs>
<clipPath id="clip0_422_138">
<rect width="175" height="52" fill="white"/>
</clipPath>
</defs>
</svg>
