<svg width="175" height="52" viewBox="0 0 175 52" fill="none" xmlns="http://www.w3.org/2000/svg">
<path d="M153.445 9.97034C152.817 9.97034 152.308 10.4736 152.308 11.0941V18.9753H173.363L163.775 9.97106L153.445 9.97034Z" fill="#117ACA"/>
<path d="M174.133 21.3598C174.133 20.7379 173.628 20.2368 172.996 20.2368H165.027V41.056L174.13 31.571L174.133 21.3598Z" fill="#117ACA"/>
<path d="M162.613 41.8099C163.24 41.8099 163.749 41.3059 163.749 40.684V32.8057H142.693L152.283 41.8084L162.613 41.8099Z" fill="#117ACA"/>
<path d="M141.923 30.4215C141.923 31.0428 142.432 31.5489 143.062 31.5489H151.029V10.7283L141.925 20.2104L141.923 30.4215Z" fill="#117ACA"/>
<path d="M45.413 13.7708V23.3854H31.8658V13.7708L26.9316 13.7665V38.0089H31.8658V27.5943H45.413V38.0089H50.3552V13.7708H45.413Z" fill="#D289E5"/>
<path d="M111.053 13.7703V38.0026H132.7L129.958 33.7365H116.001V27.5937H129.516V23.4848H116.001V17.9364H129.935L132.621 13.7703H111.053Z" fill="#D289E5"/>
<path d="M8.5911 13.7646C3.45853 13.7646 0.866211 16.8498 0.866211 21.3389V30.388C0.866211 35.583 4.20689 38.0085 8.56546 38.0085L24.046 38.0071L21.1761 33.576H9.52183C7.04596 33.576 5.96732 32.6912 5.96732 29.9514V21.7415C5.96732 19.0929 6.87535 18.0597 9.58773 18.0597H21.2977L24.0533 13.7646H8.5911Z" fill="#D289E5"/>
<path d="M89.4009 13.7588C86.4367 13.7588 83.3984 15.5204 83.3984 20.0515V21.2158C83.3984 25.9394 86.3217 27.7416 89.2464 27.7539H99.5123C100.579 27.7539 101.445 27.9291 101.445 29.711L101.443 31.7694C101.416 33.3703 100.609 33.7367 99.4757 33.7367H85.9702L83.2036 38.0027H99.7935C103.794 38.0027 106.51 36.0348 106.51 31.4892V29.8189C106.51 25.4239 103.987 23.3474 100.074 23.3474H90.2716C89.1849 23.3474 88.4277 23.0541 88.4277 21.4627V19.7865C88.4277 18.4311 88.9469 17.9366 90.213 17.9366L103.075 17.9315L105.763 13.7531L89.4009 13.7588Z" fill="#D289E5"/>
<path d="M64.6905 13.7703L53.0654 38.0069H58.5598L60.824 33.0016H73.4566L75.7135 38.0069H81.232L69.5799 13.7703H64.6905ZM67.1282 18.8024L71.5952 28.876H62.6899L67.1282 18.8024Z" fill="#D289E5"/>
</svg>
