<svg width="16" height="16" viewBox="0 0 16 16" fill="none" xmlns="http://www.w3.org/2000/svg">
<path d="M14.6538 5.25353C14.6225 4.54508 14.508 4.05803 14.3439 3.63599C14.1746 3.188 13.9141 2.78693 13.5728 2.45351C13.2394 2.1149 12.8357 1.85179 12.3929 1.68513C11.9684 1.52101 11.4839 1.40645 10.7755 1.37521C10.0617 1.34133 9.83514 1.3335 8.02489 1.3335C6.21465 1.3335 5.98806 1.34133 5.27696 1.37257C4.56851 1.4038 4.08146 1.51847 3.65952 1.68248C3.21144 1.85179 2.81036 2.11225 2.47694 2.45351C2.13834 2.78693 1.87532 3.19065 1.70856 3.63344C1.54445 4.05803 1.42988 4.54244 1.39865 5.25089C1.36477 5.96463 1.35693 6.19122 1.35693 8.00146C1.35693 9.81171 1.36477 10.0383 1.396 10.7494C1.42724 11.4578 1.54191 11.9449 1.70602 12.3669C1.87532 12.8149 2.13834 13.216 2.47694 13.5494C2.81036 13.888 3.21408 14.1511 3.65688 14.3178C4.08146 14.4819 4.56587 14.5965 5.27442 14.6277C5.98541 14.6591 6.2121 14.6668 8.02235 14.6668C9.8326 14.6668 10.0592 14.6591 10.7703 14.6277C11.4787 14.5965 11.9658 14.4819 12.3877 14.3178C13.2838 13.9714 13.9922 13.2629 14.3387 12.3669C14.5027 11.9424 14.6174 11.4578 14.6486 10.7494C14.6798 10.0383 14.6877 9.81171 14.6877 8.00146C14.6877 6.19122 14.685 5.96463 14.6538 5.25353ZM13.4531 10.6973C13.4244 11.3485 13.315 11.7001 13.2239 11.9345C12.9998 12.5154 12.5388 12.9764 11.9579 13.2004C11.7235 13.2916 11.3694 13.401 10.7207 13.4296C10.0175 13.4609 9.80655 13.4686 8.02754 13.4686C6.24853 13.4686 6.03496 13.4609 5.33425 13.4296C4.68308 13.401 4.33145 13.2916 4.09703 13.2004C3.80797 13.0936 3.54486 12.9243 3.3313 12.7029C3.1099 12.4867 2.94059 12.2262 2.83376 11.9372C2.7426 11.7027 2.63322 11.3485 2.60463 10.6999C2.57329 9.99669 2.56556 9.78567 2.56556 8.00665C2.56556 6.22764 2.57329 6.01408 2.60463 5.31346C2.63322 4.66229 2.7426 4.31066 2.83376 4.07624C2.94059 3.78708 3.1099 3.52407 3.33394 3.3104C3.55005 3.08901 3.81051 2.9197 4.09967 2.81297C4.33409 2.72181 4.68837 2.61243 5.33689 2.58374C6.04015 2.5525 6.25117 2.54467 8.03008 2.54467C9.81174 2.54467 10.0227 2.5525 10.7234 2.58374C11.3745 2.61243 11.7262 2.72181 11.9606 2.81297C12.2497 2.9197 12.5128 3.08901 12.7263 3.3104C12.9477 3.52661 13.117 3.78708 13.2239 4.07624C13.315 4.31066 13.4244 4.66483 13.4531 5.31346C13.4843 6.01672 13.4922 6.22764 13.4922 8.00665C13.4922 9.78567 13.4843 9.99404 13.4531 10.6973Z" fill="white"/>
<path d="M8.02489 4.57632C6.13396 4.57632 4.59974 6.11043 4.59974 8.00147C4.59974 9.89251 6.13396 11.4266 8.02489 11.4266C9.91593 11.4266 11.45 9.89251 11.45 8.00147C11.45 6.11043 9.91593 4.57632 8.02489 4.57632ZM8.02489 10.2233C6.79815 10.2233 5.80308 9.22831 5.80308 8.00147C5.80308 6.77462 6.79815 5.77966 8.02489 5.77966C9.25173 5.77966 10.2467 6.77462 10.2467 8.00147C10.2467 9.22831 9.25173 10.2233 8.02489 10.2233Z" fill="white"/>
<path d="M12.3852 4.4409C12.3852 4.88247 12.0272 5.24051 11.5855 5.24051C11.1439 5.24051 10.7859 4.88247 10.7859 4.4409C10.7859 3.99922 11.1439 3.64128 11.5855 3.64128C12.0272 3.64128 12.3852 3.99922 12.3852 4.4409Z" fill="white"/>
</svg>
