<svg width="175" height="52" viewBox="0 0 175 52" fill="none" xmlns="http://www.w3.org/2000/svg">
<path d="M35.9134 17.8698L14.0003 5.30273L11.2612 6.87475V10.0158L8.52208 8.44375L5.78295 10.0158V13.1568L3.04382 11.5848L0.304688 13.1568V38.291L3.04382 39.863L5.78295 38.291V41.432L8.52208 43.004L11.2612 41.432V44.573L14.0003 46.145L35.9134 33.5779V30.4369L33.1743 28.8649L35.9134 27.2929V24.1519L33.1743 22.5798L35.9134 21.0078V17.8698ZM5.78295 35.1499L3.04382 36.722V14.7288L5.78295 16.3008V35.1499ZM14.0003 36.7189V33.5779L24.9569 27.2959L27.696 28.8679L14.0003 36.7189ZM22.2177 25.7239L14.0003 30.4369V21.0108L22.2177 25.7239ZM24.9569 24.1519L14.0003 17.8698V14.7288L27.696 22.5829L24.9569 24.1519ZM8.52208 11.5848L11.2612 13.1568V16.2978L8.52208 14.7258V11.5848ZM8.52208 17.8698L11.2612 19.4418V32.0089L8.52208 33.5809V17.8698ZM8.52208 36.7189L11.2612 35.1469V38.2879L8.52208 39.86V36.7189ZM33.1743 32.0059L14.0003 43.001V39.86L30.4351 30.4339L33.1743 32.0059ZM33.1743 25.7239L30.4351 27.2959L27.696 25.7239L30.4351 24.1519L33.1743 25.7239ZM30.4351 21.0108L14.0003 11.5848V8.44375L33.1743 19.4388L30.4351 21.0108Z" fill="#00E100"/>
<path d="M47.2925 36.7187H44.1304V14.7285H53.7782C58.2065 14.7285 60.8938 17.3979 60.8938 21.325C60.8938 25.252 58.2065 27.9214 53.7782 27.9214H47.2956V36.7187H47.2925ZM57.7317 21.325C57.7317 19.1271 56.4656 17.3979 53.7782 17.3979H47.2956V25.252H53.7782C56.4656 25.252 57.7317 23.5228 57.7317 21.325ZM62.0656 24.6232C62.3821 22.0142 64.5947 19.9101 69.0565 19.9101C71.7773 19.9101 74.0843 20.6327 75.256 22.5795C75.7612 23.429 76.0473 24.5597 76.0473 25.8778V36.7156H73.0099V34.672C72.0604 35.9296 70.1643 37.1842 67.4739 37.1842C64.1199 37.1842 61.2743 35.455 61.2743 31.8424C61.2743 29.0158 63.2038 27.0054 67.3156 26.6577L73.0099 26.1861V25.8717C73.0099 23.6739 72.0604 22.2591 69.0565 22.2591C66.6521 22.2591 65.3556 23.2023 65.1973 24.6141H62.0656V24.6232ZM73.0069 29.6506V28.393L67.6291 28.8646C65.4134 29.052 64.3086 30.1222 64.3086 31.8484C64.3086 34.0492 65.8912 34.8322 67.7873 34.8322C70.636 34.8352 73.0069 32.9488 73.0069 29.6506ZM85.406 22.897C83.1934 22.897 81.7691 24.1546 81.7691 26.9812V36.7217H78.7317V20.3817H81.7691V22.2682C82.5604 20.8533 83.8234 20.0673 86.1973 20.0673H87.0525V22.8939H85.406V22.897ZM87.9686 24.6232C88.2852 22.0142 90.4978 19.9101 94.9595 19.9101C97.6804 19.9101 99.9873 20.6327 101.159 22.5795C101.664 23.429 101.95 24.5597 101.95 25.8778V36.7156H98.913V34.672C97.9634 35.9296 96.0673 37.1842 93.3769 37.1842C90.023 37.1842 87.1773 35.455 87.1773 31.8424C87.1773 29.0158 89.1069 27.0054 93.2186 26.6577L98.913 26.1861V25.8717C98.913 23.6739 97.9634 22.2591 94.9595 22.2591C92.5552 22.2591 91.2586 23.2023 91.1004 24.6141H87.9686V24.6232ZM98.913 29.6506V28.393L93.5351 28.8646C91.3195 29.052 90.2147 30.1222 90.2147 31.8484C90.2147 34.0492 91.7973 34.8322 93.6934 34.8322C96.5391 34.8352 98.913 32.9488 98.913 29.6506ZM116.879 34.5208C115.929 36.0929 114.033 37.1903 111.501 37.1903C106.567 37.1903 103.88 33.2632 103.88 28.5502C103.88 23.8372 106.567 19.9101 111.501 19.9101C114.03 19.9101 115.929 21.0105 116.879 22.5795V14.7285H119.913V36.7217H116.876V34.5208H116.879ZM111.976 22.4254C108.655 22.4254 106.914 25.0948 106.914 28.5502C106.914 32.0056 108.655 34.678 111.976 34.678C115.296 34.678 117.037 31.8514 117.037 28.5502C117.037 25.252 115.296 22.4254 111.976 22.4254ZM131.618 34.2064V36.7187H121.876V34.2064H125.23V22.897H121.876V20.3848H128.264V34.2095H131.618V34.2064ZM128.264 17.8695H125.227V14.7285H128.264V17.8695ZM144.395 34.2064C143.762 35.1497 142.024 36.5614 139.175 36.5614C134.558 36.5614 131.554 32.7916 131.554 28.2358C131.554 23.68 134.558 19.9101 139.175 19.9101C142.021 19.9101 143.762 21.325 144.395 22.2651V20.3787H147.432V34.9864C147.432 40.171 144.428 42.8405 139.65 42.8405C135.979 42.8405 133.292 40.954 132.659 38.1274H135.821C136.107 39.2581 137.276 40.4824 139.647 40.4824C143.126 40.4824 144.392 38.2846 144.392 34.9834V34.2064H144.395ZM139.495 22.4254C136.491 22.4254 134.592 25.0948 134.592 28.2388C134.592 31.3798 136.488 34.0523 139.495 34.0523C142.657 34.0523 144.556 31.3829 144.556 28.2388C144.553 25.0948 142.657 22.4254 139.495 22.4254ZM153.251 22.2682C154.201 20.5389 156.097 19.9132 157.996 19.9132C160.209 19.9132 162.266 20.8564 163.216 22.7398C164.165 21.0105 165.903 19.9132 168.752 19.9132C172.23 19.9132 174.763 21.9568 174.763 26.038V36.7187H171.725V26.5096C171.725 23.8402 170.617 22.4254 168.119 22.4254C166.061 22.4254 164.007 23.683 164.007 26.9812V36.7217H160.97V26.5126C160.97 23.8432 159.862 22.4284 157.363 22.4284C155.306 22.4284 153.251 23.686 153.251 26.9842V36.7247H150.214V20.3817H153.251V22.2682Z" fill="#EA00AD"/>
</svg>
