<svg width="175" height="52" viewBox="0 0 175 52" fill="none" xmlns="http://www.w3.org/2000/svg">
<path d="M56.0493 38.2301L58.228 33.2653C60.5824 34.9892 63.71 35.8856 66.8023 35.8856C69.0865 35.8856 70.5272 35.0237 70.5272 33.7135C70.4921 30.0589 56.8575 32.9205 56.7521 23.7495C56.717 19.095 60.9339 15.5094 66.9077 15.5094C70.4569 15.5094 74.0061 16.3713 76.5363 18.3365L74.4981 23.4047C72.1788 21.9567 69.2973 20.9224 66.5563 20.9224C64.6939 20.9224 63.464 21.7843 63.464 22.8876C63.4991 26.4732 77.2391 24.508 77.3796 33.2653C77.3796 38.0232 73.2682 41.3675 67.3646 41.3675C63.0423 41.3675 59.0714 40.3677 56.0493 38.2301ZM139.649 31.4725C138.559 33.3343 136.521 34.6099 134.167 34.6099C130.688 34.6099 127.877 31.8517 127.877 28.4385C127.877 25.0252 130.688 22.267 134.167 22.267C136.521 22.267 138.559 23.5426 139.649 25.4044L145.658 22.1291C143.409 18.1986 139.086 15.5094 134.167 15.5094C126.893 15.5094 120.989 21.3016 120.989 28.4385C120.989 35.5753 126.893 41.3675 134.167 41.3675C139.122 41.3675 143.409 38.7128 145.658 34.7478L139.649 31.4725ZM80.4017 4.78687H87.9218V40.8848H80.4017V4.78687ZM148.61 4.78687V40.8848H156.13V30.0589L165.055 40.8848H174.684L163.333 28.0247L173.84 16.0265H164.634L156.13 25.9906V4.78687H148.61ZM110.271 31.5414C109.182 33.2998 106.933 34.6099 104.403 34.6099C100.924 34.6099 98.1126 31.8517 98.1126 28.4385C98.1126 25.0252 100.924 22.267 104.403 22.267C106.933 22.267 109.182 23.6461 110.271 25.4389V31.5414ZM110.271 16.0265V18.9571C109.041 16.923 105.984 15.5094 102.786 15.5094C96.1798 15.5094 90.979 21.2327 90.979 28.404C90.979 35.5753 96.1798 41.3675 102.786 41.3675C105.984 41.3675 109.041 39.954 110.271 37.9198V40.8504H117.791V16.0265H110.271Z" fill="#DA22C3"/>
<path d="M9.55836 31.5062C9.55836 34.0231 7.48507 36.0573 4.9198 36.0573C2.35454 36.0573 0.28125 34.0231 0.28125 31.5062C0.28125 28.9894 2.35454 26.9552 4.9198 26.9552H9.55836V31.5062ZM11.8776 31.5062C11.8776 28.9894 13.9509 26.9552 16.5162 26.9552C19.0815 26.9552 21.1547 28.9894 21.1547 31.5062V42.8838C21.1547 45.4007 19.0815 47.4349 16.5162 47.4349C13.9509 47.4349 11.8776 45.4007 11.8776 42.8838V31.5062Z" fill="#E01E5A"/>
<path d="M16.5162 13.2335C13.9509 13.2335 11.8776 11.1994 11.8776 8.6825C11.8776 6.16564 13.9509 4.13147 16.5162 4.13147C19.0814 4.13147 21.1547 6.16564 21.1547 8.6825V13.2335H16.5162ZM16.5162 15.5435C19.0814 15.5435 21.1547 17.5777 21.1547 20.0946C21.1547 22.6114 19.0814 24.6456 16.5162 24.6456H4.88465C2.31939 24.6456 0.246094 22.6114 0.246094 20.0946C0.246094 17.5777 2.31939 15.5435 4.88465 15.5435H16.5162Z" fill="#36C5F0"/>
<path d="M35.1052 20.0946C35.1052 17.5777 37.1785 15.5435 39.7437 15.5435C42.309 15.5435 44.3823 17.5777 44.3823 20.0946C44.3823 22.6114 42.309 24.6456 39.7437 24.6456H35.1052V20.0946ZM32.7859 20.0946C32.7859 22.6114 30.7126 24.6456 28.1473 24.6456C25.5821 24.6456 23.5088 22.6114 23.5088 20.0946V8.6825C23.5088 6.16564 25.5821 4.13147 28.1473 4.13147C30.7126 4.13147 32.7859 6.16564 32.7859 8.6825V20.0946Z" fill="#2EB67D"/>
<path d="M28.1473 38.3328C30.7126 38.3328 32.7859 40.367 32.7859 42.8838C32.7859 45.4007 30.7126 47.4349 28.1473 47.4349C25.5821 47.4349 23.5088 45.4007 23.5088 42.8838V38.3328H28.1473ZM28.1473 36.0573C25.5821 36.0573 23.5088 34.0231 23.5088 31.5062C23.5088 28.9894 25.5821 26.9552 28.1473 26.9552H39.7789C42.3441 26.9552 44.4174 28.9894 44.4174 31.5062C44.4174 34.0231 42.3441 36.0573 39.7789 36.0573H28.1473Z" fill="#ECB22E"/>
</svg>
